<?xml version="1.0" encoding="UTF-8"?>
<!-- Generator: Adobe Illustrator 25.4.1, SVG Export Plug-In . SVG Version: 6.00 Build 0)  -->
<svg version="1.1" xmlns="http://www.w3.org/2000/svg" xmlns:xlink="http://www.w3.org/1999/xlink" x="0px" y="0px" viewBox="0 0 3433.3 1716.7" style="enable-background:new 0 0 3433.3 1716.7;" xml:space="preserve">
<style type="text/css">
	.st0{fill:#707F53;}
	.st1{fill:#B88D6B;}
	.st2{fill:#FFBA07;stroke:#2E2D2C;stroke-width:15;stroke-miterlimit:10;}
	.st3{fill:#FEE754;stroke:#2E2D2C;stroke-width:12;stroke-miterlimit:10;}
	.st4{fill:#2E2D2C;}
	.st5{fill:#C5DE8E;stroke:#2E2D2C;stroke-width:18;stroke-miterlimit:10;}
	.st6{fill:#646558;stroke:#2E2D2C;stroke-width:12;stroke-miterlimit:10;}
	.st7{fill:#879E8C;stroke:#2E2D2C;stroke-width:12;stroke-miterlimit:10;}
	.st8{fill:none;stroke:#2E2D2C;stroke-width:8;stroke-miterlimit:10;}
	.st9{fill:#5C5243;}
	.st10{fill:#DE7F3D;stroke:#2E2D2C;stroke-width:12;stroke-miterlimit:10;}
	.st11{fill:#D5A87E;stroke:#2E2D2C;stroke-width:12;stroke-miterlimit:10;}
	.st12{fill:#FEE754;stroke:#2E2D2C;stroke-width:8;stroke-miterlimit:10;}
	.st13{fill:#F1CC8E;stroke:#2E2D2C;stroke-width:12;stroke-miterlimit:10;}
	.st14{fill:none;stroke:#2E2D2C;stroke-width:12;stroke-miterlimit:10;}
	.st15{fill:#E7A625;stroke:#2E2D2C;stroke-width:12;stroke-miterlimit:10;}
	.st16{fill:#FFFFFF;stroke:#2E2D2C;stroke-width:8;stroke-miterlimit:10;}
	.st17{fill:#E7A625;}
	.st18{fill:#F89C59;stroke:#2E2D2C;stroke-width:12;stroke-miterlimit:10;}
	.st19{fill:#2E2D2C;stroke:#2E2D2C;stroke-width:12;stroke-miterlimit:10;}
	.st20{fill:#A36F11;}
	.st21{fill:#E7A625;stroke:#2E2D2C;stroke-width:12.2529;stroke-miterlimit:10;}
	.st22{fill:#FFFFFF;stroke:#2E2D2C;stroke-width:15;stroke-miterlimit:10;}
</style>
<g id="Wall_2">
	<rect class="st0" width="3433.3" height="1263.2"/>
</g>
<g id="Floor">
	<rect x="-9" y="1255.6" class="st1" width="3451.3" height="461.1"/>
</g>
<g id="Fire3">
	<path class="st2" d="M1187.9,474.3c0,0-318.6,227.7-317.1,620.2l10.7,161.6l888.5-9.7c0,0,39.8-438.1-203.7-585.2   c0,0,21.4,75.1,7.7,105.7c0,0-61.3-47.5-76.6-160.9c0,0-23,108.8-23,134.8c0,0-142.5-47.5-183.8-220.6c0,0-64.3,75.1-56.7,190   C1233.8,710.2,1149.6,606,1187.9,474.3z"/>
	<path class="st3" d="M925.9,1255.6c0,0-18.4-432,196.1-643.4c0,0-10.7,131.7,96.5,208.3c0,0,58.2-134.8,65.9-185.4l21.4,122.6   l15.8-76.6c0,0,97.6,98.6,154.3,114.4l16.9-45.4l19.9,64.3l15.3-44.4c0,0,23,47.5,61.3,65.9c0,0,30.6-23,29.1-55.1   c0,0,122.5,194.6,79.6,466.5L925.9,1255.6z"/>
</g>
<g id="Wall">
	<g>
		<path class="st4" d="M1442.2,350.2c0,73.5-33.7,894.6,0,1057h76.6c0,0,9.2-21.4,0-104.2c-9.2-82.7,0-995.7,0-995.7    c-28.7-5.3-63-7.9-100.3-8.7C1431,304.1,1442.2,318,1442.2,350.2z"/>
	</g>
	<path class="st5" d="M1022.4,1266.3c0,0,9.2-327.8,0-447.3c-9.2-119.5-30.6-468.8-24.5-484.1c0,0,355.4-58.2,520.9-27.6   c0,0-9.2,913,0,995.7c9.2,82.7,0,95,0,95h1914.6V0H0v1398h1016.3C1016.3,1398,1020.2,1364.5,1022.4,1266.3z"/>
</g>
<g id="Miror">
	<g>
		<path class="st4" d="M2647.8,195.4h268.9c15.2,0,27.6,12.3,27.6,27.6v401.7c0,19.2-15.6,34.9-34.9,34.9h-246.6    c-24.7,0-44.8-20.1-44.8-44.8V225.3C2618,208.8,2631.3,195.4,2647.8,195.4z"/>
		<path class="st6" d="M2636.3,183.2h268.9c15.2,0,27.6,12.3,27.6,27.6v401.7c0,19.2-15.6,34.9-34.9,34.9h-246.6    c-24.7,0-44.8-20.1-44.8-44.8V213.1C2606.4,196.6,2619.8,183.2,2636.3,183.2z"/>
		<path class="st7" d="M2868.6,573.9h-201.2c-5.8,0-10.5-4.7-10.5-10.5V255c0-5.8,4.7-10.5,10.5-10.5h201.2    c5.8,0,10.5,4.7,10.5,10.5v308.4C2879.1,569.2,2874.4,573.9,2868.6,573.9z"/>
		<line class="st8" x1="2768" y1="290.8" x2="2704.8" y2="409.2"/>
		<line class="st8" x1="2820.9" y1="290.8" x2="2725.9" y2="509.5"/>
		<line class="st8" x1="2811.7" y1="415.3" x2="2787.2" y2="494.2"/>
		<line class="st8" x1="2836.2" y1="445.2" x2="2799.4" y2="508"/>
		<line class="st8" x1="2846.9" y1="488.1" x2="2817.8" y2="532.5"/>
	</g>
</g>
<g id="Fire2">
	<path class="st2" d="M3410.2,632.1c-23.1,42.9-22.5,163.4-22.5,163.4s-34.7-57.2-79.7-173.6c-44.9-116.4-32.7-220.6-32.7-220.6   c-42.9,32.7-49,108.3-57.2,200.2c-8.2,91.9-87.8,126.6-87.8,126.6c-22.5-36.8,0-122.6,0-122.6s-69.4,59.2-130.7,124.6   c-61.3,65.4-108.3,173.6-108.3,173.6c16.3-183.8-81.7-159.3-79.7-232.9c2-73.5-36.8-187.9-36.8-187.9c0,22.5-10.2,32.7-96,118.5   c-85.8,85.8-94,161.4-94,161.4c24.5-259.4-89.9-279.8-89.9-279.8c14.3,44.9,14.3,161.4-14.3,206.3s-69.4,100.1-79.7,185.9   c-10.2,85.8-77.6,149.1-77.6,149.1c-69.4-30.6-118.5-171.6-103.1-220.6c15.3-49-11.2-114.4-11.2-114.4   c-6.1,55.1-145,226.7-181.8,288s0,157.3,0,157.3c-59.2-36.8-69.4-157.3-69.4-157.3c-77.6,155.2-18.4,230.8-24.5,304.3   c-6.1,73.5-85.8,169.5-85.8,169.5c81.7,22.5,190-40.9,190-40.9c0,22.5-24.5,63.3-24.5,63.3c57.2,0,104.2-30.6,104.2-30.6   c-8.2,14.3-28.6,44.9-28.6,44.9c26.6,0,65.4-14.3,65.4-14.3s57.2-30.6,77.6-57.2l-12,42.1c64.8-59.5,100.2-126.7,108-183   c0,0,30.7,92.2,35.6,201.3c21.9-7.7,45.9-18.9,50.2-31.8l23.7,31.2c43.6-56.1,104.5-116.1,184.6-155.8   c190-94,263.5-132.8,275.7-159.3c0,0-10.2,116.4,10.2,143c0,0,49-102.1,132.8-165.4c83.7-63.3,153.2-220.6,155.2-251.2   c0,0,36.8,77.6,38.8,124.6c0,0,54.5-124.6,198.8-216.5V679L3410.2,632.1z"/>
	<path class="st3" d="M3259,701c1.5,21.4-44.4,79.7-105.7,116.4c-61.3,36.8-78.1,90.4-78.1,90.4c-10.7-23-33.7-112.3-33.7-112.3   s3.1,40.3-50.6,133.8S2805.6,1061,2805.6,1061c26-33.7,4.6-134.8-26-188.4c-30.6-53.6-62.8-156.3-62.8-156.3l-52.1,50.6   c-90.4,91.9-84.3,200.7-84.3,200.7c-49-70.5-46-229.8-46-229.8c-73.5,110.3-113.4,283.4-133.3,326.3   c-19.9,42.9-67.4,61.3-67.4,61.3s-49-4.6-99.6-49c-50.6-44.4-62.8-218-62.8-218c-18.4,17.9-79.7,116.9-105.7,188.9   c-26,72,0,150.1,0,150.1c-59.7,4.6-96.5-58.2-96.5-58.2c-12.3,30.6,1.5,182.3,7.1,220.1s-63.5,94.9-63.5,94.9l0,0   c64.5-8.6,124.8-43.8,124.8-43.8c0,22.5-24.5,63.3-24.5,63.3c57.2,0,104.2-30.6,104.2-30.6c-8.2,14.3-28.6,44.9-28.6,44.9   c26.6,0,65.4-14.3,65.4-14.3s57.2-30.6,77.6-57.2l-12,42.1c64.8-59.5,100.2-126.7,108-183c0,0,30.7,92.2,35.6,201.3   c21.9-7.7,45.9-18.9,50.2-31.8l23.7,31.2c43.6-56.1,104.5-116.1,184.6-155.8c190-94,263.5-132.8,275.7-159.3   c0,0-10.2,116.4,10.2,143c0,0,49-102.1,132.8-165.4c83.7-63.3,153.2-220.6,155.2-251.2c0,0,36.8,77.6,38.8,124.6   c0,0,25.7-58.8,88.6-125.4C3280,810.9,3259,701,3259,701z"/>
	<path class="st2" d="M515.9,399.2c0,0,27.4-67.4,86.2-91.9c0,0-45.4,187.9,9.8,273.7c55.1,85.8,108.3,185.9,122.6,196.1   s-30.6-73.5,42.9-200.2s42.9-104.2,40.9-118.5c0,0,77.6,47,65.4,214.5s-97,339.7,1.3,490.2c0,0-7.4-71.5,33.4-157.3   s61.3-147.1,38.8-198.1c0,0,134.8,177.7,116.4,367.7c-18.4,190-35.4,283.9,1.7,363.6c0,0-34.4-89.9,98.4-204.3   c0,0-34.7,181.8,51.1,269.6c0,0,2-55.1,53.1-94c0,0,0,124.6,20.4,165.4l-73.5,40.9H0V0h158.4c0,0,24.5,72.4,34.7,131.6   c0,0,130.7-52.9,169.5-131.6h120.5c0,0,67.4,176.6,51.1,268.5C517.9,360.4,515.9,399.2,515.9,399.2z"/>
	<path class="st3" d="M0,335.9c0,0,27.7-44.9,44-49c0,0,122.6,149.1,116.4,243.1c0,0,20.4-61.3,96-157.3s126.6-151.1,134.8-196.1   c0,0,63.3,116.4,44.9,214.5c-18.4,98-77.6,267.6-24.5,384c0,0-4.1-122.6,63.3-222.6c0,0,55.1,185.9,120.5,257.4   s98,77.6,126.6,134.8c0,0,0-61.3,38.8-108.3c38.8-47,47-63.3,47-87.8c0,0,32.7,49,0,132.8s-75.6,269.6,91.9,418.7   c0,0-6.1-71.5,12.3-104.2c18.4-32.7,75.6-104.2,73.5-153.2c0,0,34.7,102.1,18.4,177.7c-16.3,75.6-81.7,269.6,49,428.9   c0,0,79.7-67.4,94-140.9c0,0-6.1,126.6,57.2,208.3H0V335.9z"/>
</g>
<g id="Fumée">
	<g>
		<path class="st4" d="M-9-9v268.8l9.7-0.8c7.1-0.6,164.3-13.8,209.5-82.6c14.4,20.7,47.2,58.4,104.7,76.6    c21.5,6.8,44.3,10.2,68.2,10.2c53.5,0,112.8-17,177.3-50.7c5.7,7,16.2,18.8,31.3,31.2c21.4,17.7,56.2,39.9,100.9,45.6    c7.3,0.9,14.7,1.4,22,1.4c50.4,0,101.9-21.6,153.4-64.3c9.8,5.8,30.8,17.1,57,23.7c45.3,11.4,85.2,3.5,116.1-22.8    c9,6.4,18.6,12,28.6,16.8c10.3,5,21.1,8.9,32.1,12c2.7,0.8,5.5,1.4,8.3,2.1c2.8,0.6,5.6,1.3,8.4,1.8c2.8,0.5,5.6,1.1,8.4,1.5    l4.2,0.6c1.4,0.2,2.8,0.3,4.3,0.5c11.4,1.3,22.8,1.7,34.2,1.4c11.4-0.3,22.7-1.4,33.9-3c2.8-0.4,5.6-0.8,8.4-1.3l4.2-0.7l4.1-0.8    l8.3-1.7c2.8-0.5,5.5-1.3,8.2-1.9c11-2.5,21.8-5.6,32.6-9c10.7-3.5,21.3-7.6,31.8-12.1c20.8-9.2,40.7-20.8,58.7-35.2    c4.5-3.6,8.8-7.4,13-11.4c4.1-4,8.2-8.2,12-12.6c3.8-4.4,7.4-9,10.7-13.9c1.2-1.7,2.3-3.4,3.4-5.2c4.7,3.9,9.6,7.5,14.7,10.8    c13.6,8.7,28.5,15.3,44.1,19.6c15.6,4.4,31.8,6.2,47.9,6.2c8.1,0,16.1-0.6,24-1.6c8-0.9,15.8-2.5,23.6-4.2    c15.5-3.6,30.7-8.4,45.3-14.4c7.3-3,14.5-6.2,21.6-9.6c3.5-1.8,7.1-3.4,10.5-5.3c3.5-1.9,7-3.6,10.3-5.6    c11-6.2,21.8-12.8,32.2-19.9c0.4,0.7,0.8,1.5,1.2,2.2c1.9,3.4,3.9,6.8,6.1,10.1c4.2,6.6,8.8,12.9,13.8,19    c9.9,12.1,21.3,23.1,34.1,32.4c6.4,4.6,13.1,8.8,20.2,12.5c7,3.7,14.4,6.7,21.9,9.3l5.7,1.8c1.9,0.6,3.8,1,5.8,1.5l2.9,0.7    c1,0.2,1.9,0.4,2.9,0.6l5.8,1.1l5.9,0.8c1,0.1,2,0.3,2.9,0.4l2.8,0.3c3.8,0.3,7.6,0.8,11.4,1l5.7,0.4c1.9,0.1,3.8,0.2,5.7,0.3    c1.9,0.1,3.8,0.2,5.7,0.3l5.8,0.1l2.9,0.1l2.9,0l5.8,0l5.8-0.2l2.9-0.1l2.9-0.2c7.7-0.4,15.5-1.3,23.2-2.5    c7.7-1.3,15.5-3,23.1-5.4c7.6-2.4,15-5.5,22.1-9.4c7.1-3.9,13.7-8.5,19.9-13.6c6.1-5.1,11.7-10.8,16.9-16.5    c3.5-3.9,6.8-7.8,10.1-11.8c1.4,0.9,2.9,1.8,4.3,2.7c3.5,2.1,7,4.2,10.5,6.1c7.1,3.8,14.4,7.3,21.9,10.4c7.5,3.1,15,5.9,22.8,8.3    c7.7,2.4,15.5,4.5,23.5,6.1c31.7,6.7,64.8,7.4,96.7,1.5c22.9-4.1,45-11.5,65.8-21.3c1.3,0.9,2.5,1.8,3.8,2.7    c2.9,2,5.7,3.9,8.7,5.8c5.8,3.7,11.8,7.3,17.8,10.6c12.1,6.7,24.5,12.7,37.4,17.8c12.8,5.1,26.1,9.4,39.6,12.7    c13.5,3.2,27.4,5.3,41.4,6.1c7,0.4,14,0.4,21,0.1c7-0.3,14-1.1,21-2.1c7-1.1,13.9-2.6,20.7-4.4c3.4-0.9,6.8-2,10.1-3.1    c3.3-1.2,6.7-2.3,9.9-3.7c13.1-5.2,25.5-12.1,37.1-19.9c8.7-6,16.9-12.5,24.7-19.6c0.7,0.9,1.5,1.8,2.2,2.6c3,3.5,6.3,6.8,9.6,9.9    c3.3,3.2,6.8,6.1,10.4,8.9c3.6,2.8,7.3,5.5,11.1,8c15.2,10,31.8,17.5,49,22.7c8.6,2.6,17.4,4.6,26.2,6.2c4.4,0.7,8.8,1.4,13.3,1.9    c2.2,0.2,4.4,0.6,6.6,0.7l6.7,0.5c2.2,0.2,4.4,0.2,6.7,0.3c2.2,0.1,4.4,0.2,6.7,0.2l6.7,0l3.3,0l3.3-0.1c4.3-0.1,8.7-0.2,13-0.4    l6.5-0.2l6.5-0.3c17.4-0.8,34.8-2.2,52.2-4.7c17.4-2.6,35-6.3,51.9-12.7c8.5-3.2,16.7-7.1,24.6-11.7c7.9-4.6,15.3-9.9,22.3-15.6    c11.4-9.4,21.4-19.9,30.8-30.7l2.4,2.2l3.2,2.8c4.3,3.6,8.7,7.1,13.3,10.4c9.1,6.6,18.6,12.6,28.5,18c19.8,10.7,40.9,19,62.8,24.4    c10.9,2.8,22.1,4.6,33.2,6l8.4,0.9c2.8,0.2,5.6,0.4,8.4,0.5c1.4,0.1,2.8,0.2,4.2,0.2l4.2,0.1c2.8,0,5.6,0.1,8.4,0.1    c5.6-0.2,11.3-0.2,16.9-0.8c2.8-0.2,5.6-0.4,8.4-0.7l8.4-1l4.2-0.5l4.1-0.7l8.3-1.4c2.7-0.5,5.5-1.1,8.2-1.7l4.1-0.9l2-0.4l2-0.5    c43.4-10.5,84.8-30,119.9-57.7c7.2-5.7,14.2-11.8,20.9-18.2c7.8,10.8,34.1,42.7,75.6,51.7c30,6.5,61.2-0.5,92.5-20.9l4.1-2.7V-9    H-9z"/>
		<path class="st9" d="M3424.3,167.5c-25.7,15.6-50.7,21-74.6,15.9c-40.5-8.7-65.2-45-66.7-47.2c4.7-5.2,9.2-10.6,13.3-16.3    c6.6-9.1,12.3-18.8,16.8-29.1c2.2-5.2,4.1-10.5,5.5-16c1.3-5.5,2.3-11.2,1.7-16.7c-2.2,5.1-4.9,9.7-7.8,14.2    c-2.8,4.5-6,8.8-9.1,13c-6.3,8.4-13,16.5-19.9,24.3c-7,7.8-14.1,15.5-21.7,22.6c-7.6,7.2-15.7,13.8-24.1,20.1l-3.2,2.3l-1.6,1.2    l-1.6,1.1l-6.5,4.4l-6.6,4.2l-1.7,1.1l-1.7,1l-3.4,2l-3.4,2c-1.1,0.7-2.3,1.3-3.4,1.9c-2.3,1.2-4.6,2.5-6.9,3.7l-7,3.5    c-2.3,1.2-4.7,2.2-7.1,3.3c-4.7,2.2-9.6,4.1-14.4,6.1c-2.4,1-4.9,1.8-7.3,2.7l-3.7,1.4c-1.2,0.5-2.5,0.8-3.7,1.2l-7.4,2.4    c-2.5,0.8-5,1.5-7.5,2.2c-5,1.5-10.1,2.7-15.2,3.9l-1.9,0.5l-1.9,0.4l-3.8,0.8c-2.6,0.5-5.1,1.1-7.7,1.6l-7.7,1.3l-3.8,0.6    l-3.9,0.5l-7.7,0.9c-2.6,0.3-5.2,0.4-7.8,0.6c-5.2,0.5-10.4,0.5-15.5,0.7c-2.6,0.1-5.2,0-7.8-0.1l-3.9-0.1c-1.3,0-2.6-0.1-3.9-0.2    l-7.8-0.4l-7.7-0.7c-10.3-1.2-20.5-2.8-30.6-5.2c-1.3-0.3-2.5-0.6-3.8-0.9l-3.8-1c-1.2-0.3-2.5-0.6-3.8-1l-3.7-1.1l-3.7-1.1    c-1.2-0.4-2.5-0.8-3.7-1.2c-2.4-0.9-4.9-1.6-7.3-2.6c-9.7-3.6-19.3-7.7-28.5-12.5c-9.3-4.7-18.2-10-26.9-15.8    c-4.3-2.9-8.5-5.9-12.6-9.1l-3-2.4l-3-2.4c-1-0.8-2-1.6-2.9-2.5c-0.5-0.4-0.9-0.8-1.4-1.2l-1.2-1.1l-7.5-6.9l-5.9,7.4l0,0    c-10.9,13-22.2,25.3-34.8,35.8c-6.3,5.2-12.9,9.9-19.9,13.9c-7,4.1-14.3,7.5-21.9,10.4c-15.2,5.8-31.5,9.3-48.1,11.7    c-16.6,2.4-33.5,3.7-50.5,4.5l-6.4,0.3l-6.4,0.2c-4.3,0.2-8.5,0.2-12.8,0.3l-3.2,0.1l-3.1,0l-6.2,0c-2.1,0-4.2-0.1-6.2-0.2    c-2.1-0.1-4.2-0.1-6.2-0.3l-6.2-0.5c-2.1-0.1-4.1-0.4-6.2-0.7c-4.1-0.4-8.2-1.1-12.3-1.7c-8.1-1.5-16.2-3.3-24-5.7    c-15.7-4.8-30.7-11.6-44.3-20.5c-3.4-2.2-6.7-4.6-9.9-7.1c-3.1-2.5-6.3-5.1-9.2-7.9c-2.9-2.8-5.7-5.6-8.3-8.6    c-1.3-1.5-2.6-3-3.7-4.6c-0.6-0.8-1.2-1.5-1.7-2.3c-0.3-0.4-0.6-0.8-0.8-1.1l-0.6-0.9l-6.2-9.5l-7.8,7.7    c-9.2,9.1-19.1,17.4-29.7,24.6c-10.6,7.2-21.9,13.4-33.7,18.1c-23.6,9.6-49.4,13.4-75,12c-12.8-0.7-25.6-2.7-38.2-5.7    c-12.6-3-25-7-37.1-11.9c-12.1-4.8-23.9-10.5-35.3-16.8c-5.7-3.2-11.3-6.5-16.8-10c-1.4-0.9-2.7-1.8-4.1-2.6    c2-1.2,4.1-2.3,6.1-3.5c13.7-8.3,26.6-17.9,38.3-28.6c5.9-5.3,11.5-11,16.8-16.9c1.3-1.5,2.6-3,3.9-4.5c1.3-1.5,2.6-3,3.8-4.6    c2.5-3.1,4.8-6.3,7.1-9.5c-3.4,2.1-6.7,4.3-9.9,6.5c-3.3,2.1-6.5,4.3-9.8,6.5l-9.7,6.4l-4.9,3.1c-1.6,1.1-3.2,2.1-4.9,3.1    c-13,8.2-26.1,16-39.5,23c-3.4,1.7-6.7,3.5-10.1,5.1c-1.7,0.8-3.4,1.7-5.1,2.5l-5.2,2.3c-6.9,3-13.9,5.8-21,8.3    c-3.5,1.3-7.1,2.4-10.7,3.5c-3.6,1-7.2,2.1-10.8,3c-7.2,1.9-14.6,3.5-22,4.6c-7.4,1.2-14.8,2.1-22.2,2.7    c-7.4,0.5-14.9,0.7-22.4,0.6c-14.9-0.2-29.9-1.8-44.6-4.6c-7.4-1.4-14.7-3.1-21.9-5.1c-7.2-2-14.4-4.3-21.5-6.9    c-7-2.6-14-5.4-20.8-8.6c-3.4-1.6-6.8-3.2-10.1-5c-1.7-0.9-3.3-1.7-4.9-2.7l-2.4-1.4l-2.2-1.3l0,0l-6.1-4.2l-4.7,5.6    c-4.8,5.8-9.5,11.5-14.4,16.9c-4.9,5.4-9.9,10.5-15.3,15c-5.4,4.5-11.1,8.5-17.3,11.8c-6.1,3.4-12.6,6.1-19.3,8.2    c-6.7,2.2-13.7,3.7-20.8,4.9c-7.1,1.1-14.3,2-21.6,2.3l-2.7,0.2l-2.7,0.1l-5.5,0.2l-5.5,0l-2.7,0l-2.8-0.1l-5.5-0.1    c-1.8-0.1-3.7-0.2-5.5-0.3c-1.8-0.1-3.7-0.2-5.5-0.3l-5.5-0.4c-3.7-0.2-7.4-0.6-11-1l-2.8-0.3c-0.9-0.1-1.8-0.2-2.6-0.3l-5.3-0.7    l-5.2-1c-0.9-0.2-1.7-0.3-2.6-0.5l-2.6-0.7c-1.7-0.5-3.4-0.8-5.1-1.3l-5.1-1.6c-6.7-2.3-13.3-5-19.6-8.3    c-6.3-3.3-12.3-7.1-18.1-11.2c-11.6-8.4-21.9-18.5-31.1-29.6c-4.6-5.6-8.8-11.4-12.7-17.5c-2-3-3.8-6.1-5.6-9.2    c-0.9-1.6-1.7-3.1-2.5-4.7c-0.4-0.8-0.8-1.6-1.2-2.4c-0.4-0.8-0.8-1.6-1-2.2l0,0l-3.4-8.7l-8.4,5.2c-12.9,8-25.9,15.7-39.3,22.8    c-3.3,1.8-6.7,3.5-10,5.2c-3.3,1.7-6.8,3.3-10.2,4.9c-3.4,1.7-6.8,3.1-10.3,4.7c-3.4,1.5-6.9,2.9-10.4,4.4c-3.5,1.4-7,2.7-10.5,4    l-5.3,1.8l-2.6,0.9l-2.7,0.9l-5.3,1.7c-1.8,0.6-3.6,1-5.4,1.5c-3.6,1.1-7.2,1.9-10.8,2.8c-7.2,1.6-14.5,3.1-21.8,4.1    c-7.3,1-14.6,1.7-22,1.8c-14.7,0.4-29.3-0.9-43.5-4.4c-14.2-3.5-27.9-8.9-40.6-16.3c-12.7-7.4-24.5-16.4-35.5-26.6    c-5.5-5.1-10.7-10.5-15.8-16.2c-5.1-5.7-9.9-11.6-14.5-17.9c1,3.8,2.5,7.4,4.1,11c1.6,3.6,3.4,7.1,5.3,10.5    c3.8,6.9,8.3,13.4,13.3,19.6c2.3,2.9,4.8,5.7,7.3,8.4c-0.2,0.4-0.5,0.8-0.7,1.2c-1.3,2.1-2.7,4.3-4.2,6.4    c-2.9,4.2-6.2,8.2-9.6,12.2c-3.4,3.9-7.1,7.6-10.9,11.2c-3.9,3.5-7.8,7-11.9,10.3c-16.4,13.2-35,23.9-54.5,32.6    c-9.8,4.3-19.8,8.2-30,11.6c-10.2,3.3-20.5,6.5-31,9c-2.6,0.6-5.2,1.3-7.9,1.9l-7.9,1.7l-4,0.8l-4,0.7c-2.6,0.5-5.3,1-7.9,1.4    c-10.6,1.7-21.2,2.9-31.9,3.4c-10.7,0.5-21.3,0.4-31.9-0.5c-10.6-0.9-21.1-2.4-31.5-4.8c-2.6-0.6-5.2-1.2-7.7-2    c-1.3-0.4-2.6-0.7-3.8-1.1l-3.8-1.2c-1.3-0.4-2.5-0.8-3.8-1.2c-1.3-0.4-2.5-0.9-3.8-1.3c-2.5-1-5-1.8-7.4-2.9    c-4.9-2-9.7-4.3-14.5-6.7c-4.7-2.4-9.3-5.1-13.9-7.9c-18.1-11.4-34.4-25.9-48.5-42.4c-7-8.3-13.5-17.1-19.4-26.3    c-5.9-9.2-11.2-18.9-15.6-29c1.5,5.3,3.4,10.6,5.5,15.7c2.1,5.1,4.4,10.2,6.9,15.2c5,9.9,10.8,19.6,17.3,28.7    c9.6,13.6,21,26.1,33.7,37.1c-25.9,20.7-58.4,26.3-96.7,16.8c-32.6-8.1-57.4-24.7-57.6-24.9l-5.7-3.9l-5.2,4.5    c-56.7,48.5-112.7,69.7-166.4,63c-77.3-9.7-124.3-75-124.7-75.6l-4.6-6.5l-7,3.8c-91.5,49.3-171.5,63.8-237.9,42.9    c-72.6-22.8-102.8-81.3-103.1-81.9l-9.3-18.6l-7.2,19.5c-13.4,36.4-66.8,57.9-109.1,69.4c-34.3,9.3-67.1,13.9-82.9,15.6V9h3415.3    V167.5z"/>
		<g>
			<path class="st4" d="M2489,66.3c2.3,2.6,4.8,5,7.4,7.3c1.3,1.1,2.6,2.3,3.9,3.4l2,1.6l2,1.6c5.4,4.2,11.1,8,16.9,11.5     c11.7,6.9,24.1,12.4,36.8,16.7c12.7,4.3,25.9,7.3,39.2,9.3l2.5,0.4c0.8,0.1,1.7,0.2,2.5,0.3l5,0.6c1.7,0.2,3.3,0.4,5,0.6l5,0.4     l5,0.4c0.8,0.1,1.7,0.1,2.5,0.2l2.5,0.1l10.1,0.3c27.1,0,54.3-3,81.2-8.1l10.1-2.1l5.1-1l2.5-0.5l2.5-0.6     c6.7-1.7,13.4-3.1,20.1-4.8l20.1-5.3c6.7-1.9,13.4-3.8,20.1-5.6c-6.2,3.1-12.5,6.2-18.8,9.2c-3.2,1.5-6.4,2.8-9.6,4.2l-9.7,4     c-3.2,1.4-6.6,2.5-9.8,3.7l-9.9,3.5c-6.6,2.3-13.4,4.1-20.2,6.2c-3.4,0.9-6.8,1.7-10.2,2.6l-5.1,1.3c-1.7,0.4-3.4,0.9-5.2,1.2     l-10.4,2l-5.2,1l-5.3,0.7l-10.5,1.4c-3.5,0.4-7.1,0.6-10.6,0.9l-5.3,0.4c-1.8,0.1-3.6,0.1-5.3,0.2c-3.6,0.1-7.1,0.2-10.7,0.3     l-10.7-0.2l-2.7-0.1c-0.9,0-1.8-0.1-2.7-0.2l-5.3-0.4l-5.3-0.4c-1.8-0.2-3.5-0.5-5.3-0.7l-5.3-0.8c-0.9-0.1-1.8-0.2-2.7-0.4     l-2.6-0.5c-14.1-2.5-28-6.5-41.2-12.1c-13.2-5.6-25.7-12.9-36.9-21.7c-5.6-4.4-10.8-9.3-15.6-14.6     C2496.6,78.1,2492.3,72.5,2489,66.3z"/>
		</g>
		<g>
			<path class="st4" d="M569,7c19.8,8.9,40.2,16.2,60.7,22.7c20.6,6.5,41.4,12,62.4,16.5c10.5,2.3,21,4.3,31.6,6     c10.6,1.7,21.2,3.2,31.8,4.4c10.6,1.2,21.3,2.2,32,2.8c10.7,0.6,21.4,1.1,32,1.1c42.7,0.3,85.5-3.9,127.3-13.1     c2.6-0.5,5.2-1.2,7.8-1.8c2.6-0.6,5.2-1.2,7.8-1.9l7.8-2c2.6-0.7,5.2-1.4,7.8-2.1c10.4-2.8,20.6-6,30.9-9.4     c5.1-1.8,10.2-3.4,15.3-5.3l7.6-2.8l7.6-2.9c10.1-3.9,20-8.2,30.1-12.4c-2.3,1.5-4.6,2.9-6.9,4.3c-2.3,1.4-4.6,2.9-7,4.2     c-4.7,2.7-9.4,5.4-14.3,8c-2.4,1.3-4.8,2.6-7.2,3.8l-7.3,3.6c-4.9,2.5-9.9,4.6-14.9,6.9c-2.5,1.1-5,2.1-7.6,3.2     c-2.5,1-5,2.2-7.6,3.1c-5.1,2-10.2,4-15.4,5.8c-10.3,3.7-20.8,7-31.4,9.9c-42.3,11.7-86.5,17.2-130.5,16.8c-11-0.2-22-0.6-33-1.4     c-11-0.9-21.9-2-32.8-3.6c-21.8-3-43.3-7.5-64.5-13.3C668,52.6,647.2,45.5,627.1,37c-10.1-4.2-20-8.8-29.7-13.8     c-4.9-2.5-9.7-5-14.4-7.7C578.2,12.8,573.5,10.1,569,7z"/>
		</g>
		<g>
			<path class="st4" d="M1212.4,7c13.3,4.9,26.8,9,40.3,12.6c13.5,3.6,27.1,6.6,40.8,9.1c13.7,2.5,27.4,4.4,41.1,5.7l10.3,0.9     l2.6,0.2l2.6,0.1l5.2,0.3l5.2,0.3l5.2,0.1c3.4,0.1,6.9,0.3,10.3,0.2l10.3,0l10.3-0.4c3.4,0,6.9-0.4,10.3-0.6     c3.4-0.3,6.9-0.4,10.3-0.8l10.3-1c3.4-0.4,6.8-0.9,10.3-1.3l5.1-0.7l5.1-0.9l10.2-1.7c3.4-0.7,6.8-1.4,10.2-2.1l5.1-1l5.1-1.2     l10.2-2.4c3.4-0.9,6.7-1.9,10.1-2.8c6.8-1.7,13.4-4,20.2-6c3.4-1,6.7-2.2,10.1-3.3c3.4-1.1,6.7-2.2,10.1-3.3c-3,1.9-6,3.8-9,5.6     c-3.1,1.8-6.1,3.8-9.3,5.3c-6.3,3.3-12.6,6.7-19.2,9.5c-3.3,1.4-6.5,2.9-9.9,4.3l-10.1,3.8c-1.7,0.6-3.4,1.3-5.1,1.9l-5.1,1.6     c-3.4,1.1-6.9,2.2-10.3,3.2l-10.5,2.7c-1.7,0.4-3.5,0.9-5.2,1.3l-5.3,1.1c-3.5,0.7-7.1,1.5-10.6,2.1L1419,51     c-14.3,1.8-28.7,2.9-43.2,2.8c-3.6,0.1-7.2-0.2-10.8-0.3l-5.4-0.2c-1.8-0.1-3.6-0.2-5.4-0.4c-7.2-0.5-14.4-1.3-21.5-2.2L1322,49     c-3.6-0.6-7.1-1.3-10.6-2c-1.8-0.3-3.5-0.7-5.3-1.1l-5.3-1.2l-2.6-0.6l-2.6-0.7l-5.2-1.4c-13.8-3.9-27.4-8.6-40.5-14.3     c-6.6-2.9-13-6-19.3-9.4C1224.3,14.9,1218.2,11.2,1212.4,7z"/>
		</g>
		<g>
			<path class="st4" d="M1608.6,7c13.7,6.3,27.7,11.7,41.8,16.5c14.1,4.8,28.4,9,42.8,12.5c28.8,6.9,58.1,10.9,87.5,11.5     c3.7,0.1,7.3,0,11,0l2.8,0c0.9,0,1.8,0,2.8-0.1l5.5-0.3c7.3-0.1,14.6-1,22-1.6l10.9-1.4l2.7-0.4c0.9-0.1,1.8-0.2,2.7-0.4l5.4-1     l5.4-1l2.7-0.5c0.9-0.2,1.8-0.4,2.7-0.6l10.8-2.4c14.3-3.6,28.5-7.8,42.4-13.2l5.2-2l2.6-1l2.6-1.1c3.4-1.5,6.8-3,10.3-4.4     c3.5-1.4,6.8-3.1,10.2-4.7c3.4-1.6,6.8-3.2,10.3-4.8l0.2,0.3c-12,9.1-24.7,17.6-38.3,24.6c-13.4,7.3-27.7,12.9-42.2,17.7l-11,3.3     c-0.9,0.3-1.8,0.6-2.8,0.8l-2.8,0.7l-5.6,1.3l-5.6,1.3l-1.4,0.3l-1.4,0.2l-2.8,0.5l-11.4,1.9c-7.6,0.9-15.3,1.9-23,2.2l-5.8,0.3     c-1,0.1-1.9,0.1-2.9,0.1l-2.9,0c-3.8,0-7.7,0.1-11.5,0.1c-30.8-0.7-61.3-6-90.4-15.3c-14.5-4.7-28.7-10.3-42.4-17     c-6.8-3.3-13.6-6.9-20.1-10.8C1621.1,15.7,1614.6,11.7,1608.6,7z"/>
		</g>
		<g>
			<path class="st4" d="M2031.4,7c15.2,8.3,30.9,15.3,46.9,21.6c16,6.2,32.2,11.6,48.7,15.9c16.5,4.3,33.2,7.8,50,10.1     c16.8,2.3,33.7,3.6,50.7,3.7c33.9,0.3,67.7-4.1,100.6-13c8.2-2.3,16.4-4.7,24.5-7.5c2-0.6,4-1.4,6-2.1l6-2.2l6-2.3     c2-0.8,4-1.5,6-2.4l5.9-2.4c2-0.8,3.9-1.7,5.9-2.6c2-0.9,3.9-1.7,5.9-2.6l5.9-2.7c7.8-3.6,15.5-7.6,23.2-11.5     c-1.7,1.3-3.5,2.6-5.2,3.8c-1.8,1.3-3.5,2.6-5.3,3.8l-5.4,3.6l-2.7,1.8l-2.8,1.7l-5.5,3.5c-1.9,1.1-3.8,2.2-5.6,3.3     c-3.7,2.2-7.6,4.3-11.4,6.3c-1.9,1.1-3.9,2-5.8,3l-5.9,2.9l-6,2.7c-2,0.9-4,1.8-6,2.6l-6.1,2.5c-2,0.8-4.1,1.6-6.1,2.4     c-4.1,1.6-8.2,3-12.4,4.4c-33.3,11.1-68.6,16.7-103.8,16.4c-8.8-0.1-17.6-0.5-26.4-1.2c-8.8-0.8-17.5-1.9-26.2-3.3     c-17.3-2.9-34.4-7.1-51.1-12.6c-16.6-5.5-32.8-12.2-48.4-20c-7.8-4-15.4-8.2-22.8-12.8c-3.7-2.3-7.3-4.7-10.9-7.1     C2038.3,12.3,2034.8,9.8,2031.4,7z"/>
		</g>
		<g>
			<path class="st4" d="M2560.5,7c14.6,4.5,29.3,8.6,44,12.3c14.7,3.7,29.4,7.1,44.2,10c29.5,5.9,59.3,9.9,89,11.4     c29.8,1.4,59.6,0.2,88.9-5.1c14.6-2.6,29.1-6.3,43.4-11l5.3-1.8l5.3-2c1.8-0.6,3.5-1.3,5.3-2c1.7-0.7,3.5-1.4,5.3-2.1l5.2-2.2     c1.8-0.7,3.4-1.6,5.2-2.4c3.5-1.5,6.8-3.3,10.3-4.9c-11.7,9.9-24.8,18.3-38.7,25.2c-13.9,6.9-28.6,12.3-43.6,16.4     c-30.2,8.1-61.6,10.6-92.7,9.1c-31-1.5-61.7-7-91.4-15.4c-14.8-4.3-29.4-9.3-43.6-15.1c-7.1-2.9-14.1-6-21.1-9.4     C2573.8,14.6,2567,11,2560.5,7z"/>
		</g>
	</g>
</g>
<g id="Chair">
	<polyline class="st10" points="1723.7,1282.6 1723.7,1620.7 1777.3,1620.7 1777.3,1282.6  "/>
	<path class="st4" d="M1777.3,1282.6c0,0-11.6,145-26.8,164.4c-15.2,19.4-4,173.6-4,173.6h-22.8v-338H1777.3z"/>
	<rect x="1367.1" y="1335.2" class="st10" width="51.4" height="301.7"/>
	<rect x="1610.7" y="1335.2" class="st10" width="53.6" height="311"/>
	<rect x="1534.6" y="1335.2" class="st4" width="53.6" height="285.4"/>
	<path class="st10" d="M1790.7,1274.4l-98.3,60.8h-386.6c-20.7-95.7,31.4-104.2,31.4-104.2l139.1-44c0,0,189.7,2,221.1,2   C1804,1189,1790.7,1205,1790.7,1274.4z"/>
	<path class="st10" d="M1470.7,940.5c-36,11.1-129.6,43-149.1,51.6c-21.3,9.3-37.7,22-38.7,63.8c-1,41.9-3.1,140.9,1,153.2   c4.1,12.3,9.7,35.3,32.4,35l-7.6,11.5h-60.6c0,0-33.7-4.6-33.7-84.3s0-183.8,35.7-197.1c30.9-11.5,133.8-49.9,153.7-56.2   c0,0,67.4-7.7,75.6-2c8.2,5.6,7.7,17.9,7.7,17.9L1470.7,940.5z"/>
	<path class="st10" d="M1487.1,933.9c0,0-108.1,37.2-157.2,54.8s-47,59.3-47,59.3s-1.5,117.2,0,156.3c1.5,39.1,33.3,39.9,33.3,39.9   l11.4-9.3l159.5-51.2c0,0,12.5,0.8,10.2-48.3C1495,1086.3,1506.1,953.7,1487.1,933.9z"/>
</g>
<g id="Table">
	<g>
		<polygon class="st10" points="2216.2,1632.9 2145.4,1632.9 2145.4,1248.7 2145.4,1244.1 2216.2,1244.1 2216.2,1263.2   "/>
		<rect x="2470.4" y="1283.5" class="st4" width="70.8" height="388.8"/>
		<path class="st4" d="M2216.2,1337v-73.8V1246l-6.8-1.9h-64v4.6v100.6C2164.3,1347.8,2192.7,1344.4,2216.2,1337z"/>
		<path class="st10" d="M3433.3,1196.5c0,66.9-311.1,121.2-694.8,121.2s-694.8-54.2-694.8-121.2v-73.5h1388.4L3433.3,1196.5z"/>
		<path class="st11" d="M3433.3,1122.9c0,66.9-311.1,121.2-694.8,121.2s-694.8-54.2-694.8-121.2c0-66.9,311.1-84,694.8-84    S3433.3,1056,3433.3,1122.9z"/>
	</g>
</g>
<g id="Fire1">
	<path class="st2" d="M1976.3,1716.7c0,0,67.4-136.9,175.7-206.3c108.3-69.4,165.4-161.4,175.7-234.9c0,0,63.3,190,22.5,347.2   c0,0,81.7-208.3,271.7-302.3c190-94,263.5-132.8,275.7-159.3c0,0-10.2,116.4,10.2,143c0,0,49-102.1,132.8-165.4   c83.7-63.3,153.2-220.6,155.2-251.2c0,0,36.8,77.6,38.8,124.6c0,0,54.5-124.6,198.8-216.5v921.2H1976.3z"/>
	<path class="st12" d="M2107,1716.7c0,0,55.1-114.4,136.9-167.5c0,0-4.1,122.6,89.9,167.5H2107z"/>
	<path class="st3" d="M2401.1,1716.7c0,0,14.3-55.1,71.5-83.7c57.2-28.6,130.7-232.9,320.7-292.1c0,0,34.7,147.1,89.9,163.4   c0,0,26.6-42.9,102.1-116.4c75.6-73.5,167.5-214.5,183.8-267.6c0,0,14.3,85.8,65.4,112.3c0,0,14.3-75.6,61.3-112.3   c47-36.8,137.5-118.5,137.5-118.5v714.9H2401.1z"/>
</g>
<g id="Coffee">
	<g>
		<g>
			<path class="st13" d="M2168.8,941.6h150.2c7.3,0,13.1,6.1,12.8,13.3c-0.6,14.1-2.2,39.2-6.3,73.5c-6.6,55.6-4.6,111.8-4.6,111.8     s5.4,17.6-32.7,20.4c-44.9,3.3-92.9,0-92.9,0s-38.1-6.6-35.7-25.5c2-16.6-8.2-142.7-3.3-182.4     C2157.1,946.4,2162.4,941.6,2168.8,941.6z"/>
			<path class="st14" d="M2156.3,952.8c0,0,6.2,28.1,58.3,28.2s94.4-2.9,117.2-26"/>
			<path class="st13" d="M2409.4,999.1c-11.6-23.8-77.6-18.1-77.6-18.1s-0.1,20.1-3.4,36.2c12.6-0.7,31.8-0.5,40.5,7.2     c13,11.5,10,22.4,10,22.4s1.1,22.8-25.1,22.8c-14.3,0-22.9,0-30.2,0c0.2,18.6-1.4,36.7-1.4,36.7c-0.1,6.8,30.6,8.5,56.4,5.4     c25.8-3.1,42.4-38.3,44.7-51.3S2421.1,1022.9,2409.4,999.1z"/>
		</g>
		<path class="st4" d="M2316.9,966.9c0,7.8-34.1,14.1-76.1,14.1c-42,0-76.1-6.3-76.1-14.1c0-7.8,34.1-9.9,76.1-9.9    C2282.8,956.9,2316.9,959.1,2316.9,966.9z"/>
	</g>
</g>
<g id="Stroke">
	<g>
		<g>
			<path class="st4" d="M303.7,1559.4c2.9,11.3,5.1,22.3,7.5,33.3c2.3,11,4.5,21.9,6.9,32.7c2.4,10.8,5,21.6,7.9,32.3     c1.5,5.4,3.1,10.7,4.7,16.1c1.7,5.4,3.6,10.7,5.4,16.3c-4.2-4-7.9-8.6-11.2-13.5c-3.2-4.9-6.1-10-8.6-15.2     c-1.2-2.7-2.5-5.3-3.5-8c-1.1-2.7-2.1-5.4-3-8.2c-1.8-5.5-3.4-11.1-4.7-16.8c-2.6-11.3-4.1-22.8-4.5-34.4     c-0.2-5.8-0.2-11.6,0.2-17.3c0.2-2.9,0.5-5.8,0.9-8.7c0.4-2.9,0.8-5.8,1.6-8.6H303.7z"/>
		</g>
		<g>
			<path class="st4" d="M336.1,1379.6c2.3,27.9,4.1,55.5,7.1,82.9c0.7,6.8,1.6,13.7,2.5,20.4c0.5,3.4,1,6.8,1.6,10.1     c0.3,1.7,0.6,3.3,0.9,5c0.3,1.7,0.6,3.3,1,5c1.4,6.6,2.9,13.2,4.9,19.4l6.5,19.7c8.7,26.4,17.1,52.9,25,79.6     c7.9,26.7,15.4,53.5,21.9,80.6c-11.3-25.5-21.5-51.4-31.4-77.4c-9.9-26-19.2-52.2-28.3-78.4l-3.4-9.9l-1.7-4.9l-0.8-2.5l-0.8-2.6     c-2.2-7-3.9-14-5.1-21.1c-2.5-14.1-3.7-28.1-4.3-42.2c-0.6-14-0.4-28,0.2-42C332.9,1407.4,334,1393.5,336.1,1379.6z"/>
		</g>
		<g>
			<path class="st4" d="M675.2,1573.7c1.6,6,2.9,12,4.1,18c1.2,6,2.3,12,3.4,18c2.1,12,3.9,24,5.8,36l5.4,35.7     c1,5.9,1.9,11.8,3,17.7c1.2,5.9,2.5,11.7,4.9,17.5c-2.3-2-4.5-4.5-6.2-7.1c-0.9-1.3-1.7-2.7-2.5-4c-0.8-1.4-1.5-2.8-2.2-4.2     c-2.8-5.7-5-11.6-6.9-17.5c-3.7-11.9-6-24.1-7.7-36.3c-1.6-12.2-2.6-24.5-2.8-36.8c-0.1-6.1-0.1-12.3,0.2-18.5     C673.9,1586,674.3,1579.8,675.2,1573.7z"/>
		</g>
		<g>
			<path class="st4" d="M744.6,1451.6l4.9,31.3c0.8,5.2,1.6,10.4,2.5,15.6l2.6,15.6l2.7,15.5l2.8,15.5l2.7,15.6l2.6,15.6     c3.4,20.9,6.5,41.8,9.2,62.7c2.7,21,5.1,42,6.6,63.1c-5.4-20.5-9.8-41.2-14-61.9c-4.1-20.7-7.9-41.5-11.3-62.4l-2.5-15.6     l-2.4-15.7c-1.5-10.5-3-21-4-31.6C745.1,1494.1,743.9,1472.9,744.6,1451.6z"/>
		</g>
		<path class="st14" d="M795.7,1577"/>
		<g>
			<path class="st4" d="M833.4,1713.3l0.5,0.8c0.1,0.2,0.3,0.5,0.2,0.4l-0.1-0.1c-0.1-0.1-0.2-0.1-0.2-0.2l-0.2-0.2     c-0.1-0.1-0.2-0.2-0.3-0.2c0,0-0.4-0.2-0.7-0.4c-0.2-0.1-0.3-0.1-0.5-0.2c-0.1,0-0.3-0.1-0.9-0.2c-0.4-0.1-0.9-0.1-1.4,0     c-0.5,0.1-0.8,0.1-1.4,0.3c-0.6,0.2-1.1,0.5-1.6,0.9c-0.5,0.4-0.8,0.8-1,1c-0.2,0.3-0.4,0.6-0.5,0.9c-0.1,0.3-0.3,0.7-0.3,0.8     c-0.1,0.2-0.1,0.5-0.2,0.7c0,0.1,0,0.3,0,0.4l0,0.1c0,0.1,0,0.2,0,0.3l0,0.2l0,0.1l0,0.1l0,0.1c0,0,0,0,0,0c0-0.1,0-0.2,0-0.3     c-0.2-1.1-0.7-2.7-1.1-4.1c-0.9-2.9-1.8-5.9-2.7-8.9c-1.9-6-3.7-11.9-5.6-17.9c-3.6-12-7.1-24.1-10.1-36.3     c-3-12.2-5.6-24.5-7.4-36.9c-1.8-12.4-2.9-25-2-37.5c0.1,12.5,2.2,24.8,5,36.9c2.8,12.1,6.3,24,10.3,35.8     c3.9,11.8,8.3,23.4,12.8,35c2.3,5.8,4.6,11.6,6.9,17.4c1.2,2.9,2.3,5.8,3.5,8.8c0.6,1.5,1.1,3,1.7,4.9c0.1,0.3,0.1,0.5,0.2,0.8     l0.1,0.5l0.1,0.4l0,0.2l0,0.3l0,0.3l0,0.1l0,0.2l0,0.4l0,0.2c0,0.1,0,0.3-0.1,0.4c-0.1,0.3-0.1,0.6-0.2,0.9     c0,0.1-0.2,0.6-0.4,0.9c-0.2,0.3-0.4,0.6-0.6,0.9c-0.2,0.2-0.5,0.6-1,1.1c-0.5,0.4-1.1,0.7-1.7,1c-0.7,0.2-1,0.3-1.5,0.3     c-0.5,0-1,0-1.4,0c-0.6-0.1-0.8-0.2-0.9-0.2c-0.2-0.1-0.4-0.1-0.6-0.2c-0.4-0.2-0.8-0.4-0.9-0.4c-0.2-0.1-0.3-0.2-0.5-0.3     l-0.2-0.2l-0.1-0.1c-0.2-0.1-0.3-0.3-0.4-0.4l-0.3-0.3c-0.7-0.7-0.9-1.1-1.3-1.5l-0.8-1.1L833.4,1713.3z"/>
		</g>
		<g>
			<path class="st4" d="M854.9,1487.9c2.8,8.5,5.3,17.1,7.7,25.7c2.4,8.6,4.7,17.2,6.9,25.7c4.5,17.2,8.6,34.4,12.9,51.5     c4.3,17.1,8.6,34.2,13.5,51.1c2.5,8.4,5.1,16.8,8.1,25c1.5,4.1,3.2,8.1,5.1,12.1c1.9,3.9,4.1,7.7,7.1,11.1     c-1.9-1.2-3.6-2.7-5.3-4.2c-1.6-1.6-3.1-3.3-4.5-5.1c-2.8-3.6-5.3-7.4-7.6-11.4c-4.5-7.9-8.3-16.1-11.7-24.4     c-6.7-16.7-11.9-33.9-16.4-51.2c-4.4-17.3-8-34.8-10.7-52.5c-1.4-8.8-2.5-17.7-3.4-26.6c-0.4-4.4-0.8-8.9-1.1-13.4     C855.2,1496.9,855,1492.4,854.9,1487.9z"/>
		</g>
		<g>
			<path class="st4" d="M916.2,1506.3c3,6.8,5.6,13.7,8.1,20.6c2.5,6.9,4.8,13.9,7,20.8c4.5,13.9,8.5,28,12.3,42     c3.8,14.1,7.4,28.2,11.1,42.2c1.8,7.1,3.6,14.1,5.5,21.1c0.5,1.8,1,3.5,1.5,5.2c0.5,1.8,1.1,3.5,1.6,5.2l0.9,2.6     c0.3,0.9,0.6,1.7,0.9,2.6c0.3,0.8,0.6,1.7,1,2.5c0.4,0.8,0.8,1.6,1.2,2.5c-2.8-2.5-5-5.6-7.1-8.7c-2-3.2-3.9-6.4-5.6-9.7     c-3.4-6.6-6.4-13.4-9.2-20.3c-5.5-13.7-10-27.8-13.9-41.9c-4-14.2-7.3-28.5-9.9-42.9c-1.3-7.2-2.5-14.5-3.4-21.8     c-0.5-3.7-0.9-7.3-1.2-11C916.6,1513.7,916.3,1510,916.2,1506.3z"/>
		</g>
		<g>
			<path class="st4" d="M3312.1,1663.6c0.5,2.6,0.7,5.1,0.7,7.6c0,2.5-0.1,5-0.4,7.4c-0.5,4.9-1.7,9.7-3,14.4     c-1.4,4.7-3.1,9.3-5.1,13.8c-2,4.5-4.5,8.8-7.5,12.9l-10.4-6c1.7-4.3,3.8-8.3,5.7-12.5l5.9-12.5c2-4.2,3.9-8.4,6.2-12.6     C3306.6,1671.9,3309,1667.7,3312.1,1663.6z"/>
		</g>
		<g>
			<path class="st4" d="M3355,1563.5c1.7,12.9,2.3,25.9,2.4,39c0,3.3,0,6.5-0.1,9.8l-0.3,9.8c-0.1,3.3-0.4,6.5-0.6,9.8     c-0.2,3.3-0.5,6.5-0.8,9.8c-0.6,6.5-1.4,13-2.2,19.5c-0.5,3.2-1,6.5-1.5,9.7c-0.3,1.6-0.5,3.2-0.8,4.8l-1,4.8     c-0.7,3.2-1.3,6.4-1.9,9.6l-2.3,9.6l-1.2,4.8l-1.4,4.7c-0.9,3.1-1.9,6.3-2.9,9.4l-11.5-3.4c0.7-3.1,1.5-6.2,2.3-9.3l1.2-4.6     l1.1-4.7l2.2-9.3c0.6-3.1,1.3-6.2,2-9.3c2.6-12.5,5.1-25,7.2-37.7c1.1-6.3,2.1-12.7,3-19l1.4-9.5l0.6-4.8l0.7-4.8     C3352.1,1589.2,3353.6,1576.4,3355,1563.5z"/>
		</g>
		<line class="st8" x1="1441.1" y1="1657.4" x2="1581.1" y2="1661.5"/>
		<line class="st8" x1="1474.9" y1="1692.1" x2="1581.1" y2="1689.1"/>
		<line class="st8" x1="1768" y1="1691.1" x2="1907.9" y2="1676.8"/>
		<line class="st8" x1="1868" y1="1613.5" x2="2028.4" y2="1609.4"/>
		<line class="st8" x1="1837.9" y1="1570.6" x2="2002.8" y2="1563.3"/>
		<line class="st8" x1="1857.8" y1="1536.9" x2="2020.2" y2="1531.8"/>
		<line class="st8" x1="1759.8" y1="1672.3" x2="1954.9" y2="1651.3"/>
		<line class="st8" x1="1837.9" y1="1712.6" x2="1938.5" y2="1701.3"/>
		<line class="st8" x1="1476.9" y1="1523.6" x2="1534.6" y2="1518.5"/>
		<line class="st8" x1="1482" y1="1490.7" x2="1534.6" y2="1490.7"/>
		<line class="st8" x1="1245.1" y1="1398" x2="1359.4" y2="1398"/>
		<line class="st8" x1="1221.6" y1="1371.5" x2="1359.4" y2="1374.4"/>
		<line class="st8" x1="1106.2" y1="1317.6" x2="1250.2" y2="1317.6"/>
		<line class="st8" x1="1115.4" y1="1288.7" x2="1230.8" y2="1289.8"/>
		<line class="st8" x1="1073.5" y1="1268.3" x2="1199.1" y2="1271.4"/>
	</g>
</g>
<g id="Dog">
	<g>
		<path class="st15" d="M1572.9,593.3c0,0,56.2-14.3,82.7,11.2c26.6,25.5,44.9,56.2,47,72.5c2,16.3,14.1,148.1,14.1,148.1    s172.8-59.8,219.8,27.8c47,87.6-63.8,141.1-154.2,120.3c-51.5-11.9-58.6-14.1-58.6-14.1s-14.4,43.7-7,70.2    c7.4,26.6,41.1,100.1,14.5,175.7c0,0,46.4-7.1,53.1,19.4c6.7,26.5,2,72.3,2,72.3s53.1-56,76.6-26.8c23.5,29.1,10.2,61.8-25.5,74    c-35.7,12.3-83.9,18.4-86.9-8.7s12.3-88.8-15.3-88.5c-27.5,0.3-41.8-2.6-41.8-2.6s-14.3,14.9-29.1,17v62.4c0,0,9.7,2.6,31.1-5.8    c21.4-8.5,31.7,3.8,33.7,17.6s4.1,54.6-80.7,54.6c-49,0-32.7-53.1-37.8-81.7c-5.1-28.6-5.5-39-49.3-30.6    c-43.8,8.3-151.9,19-183.6-33.4c-31.7-52.4-59.2-96.3-42.9-233.1s32.7-303.3,88.9-348.3C1480,617.8,1572.9,593.3,1572.9,593.3z"/>
		<path class="st16" d="M1594.3,813.9c0,51.3-32.9,100.1-86.8,100.1c-38.6,0-59.2-48.7-59.2-100.1s37.4-85.3,76.1-85.3    C1563,728.5,1594.3,762.5,1594.3,813.9z"/>
		<g>
			<path class="st17" d="M1406.4,1044.1c0,0-6.5,46.2,12.1,97.4c18.6,51.2,60.4,93.7,89,107.7"/>
			<path class="st4" d="M1406.4,1044.1c1.3,2.7,2,5.2,2.7,7.7c0.6,2.5,1,5,1.2,7.4c0.2,2.5,0.3,4.9,0.3,7.4c0.1,2.5,0.2,4.9,0.4,7.4     c0.2,2.5,0.3,4.9,0.6,7.3c0.3,2.4,0.5,4.9,0.8,7.3c0.3,2.4,0.7,4.9,1,7.3l1.3,7.2c1.9,9.6,4.3,19.1,7.4,28.4     c3,9.3,6.9,18.2,11.2,26.9c8.8,17.3,20,33.5,32.9,48.2c1.7,1.8,3.2,3.7,4.9,5.4l5.1,5.3l5.3,5.1c1.7,1.7,3.6,3.2,5.4,4.9     c3.7,3.2,7.4,6.2,11.3,9l1.4,1.1c0.5,0.3,1,0.7,1.5,1l3,2c1,0.7,2,1.2,3,1.8l3,1.8l-5.3,10.8c-9.8-4.6-18.5-10.6-26.6-17.2     c-8.1-6.6-15.6-13.8-22.5-21.5c-1.8-1.9-3.4-3.9-5.1-5.9l-2.5-3c-0.8-1-1.6-2-2.4-3.1c-1.6-2.1-3.2-4.1-4.7-6.2l-4.5-6.4     c-1.5-2.1-2.8-4.4-4.2-6.5l-2.1-3.3l-1.9-3.4c-1.3-2.3-2.6-4.5-3.8-6.8l-3.6-6.9c-0.6-1.1-1.1-2.3-1.7-3.5l-1.6-3.6l-1.6-3.6     c-0.5-1.2-0.9-2.4-1.4-3.6c-0.9-2.4-1.9-4.9-2.7-7.3l-2.4-7.4c-2.9-9.9-5.3-20.1-6.9-30.3c-1.6-10.2-2.4-20.5-2.6-30.8     c0-2.6,0-5.1,0-7.7c0.1-2.6,0-5.2,0.4-7.7c0.3-2.6,1-5.1,1.9-7.6C1403.4,1048.9,1404.5,1046.4,1406.4,1044.1z"/>
		</g>
		<g>
			<path class="st17" d="M1448.3,1021.2c0,0-8.2,92.9,13.3,133.2c17.6,33,61.3,72.6,95,83.3"/>
			<path class="st4" d="M1448.3,1021.2c1.4,5.6,2.1,11.1,2.8,16.6c0.7,5.5,1.1,11,1.4,16.4c0.3,5.4,0.4,10.9,0.6,16.3     c0.2,5.4,0.5,10.8,0.9,16.2c0.8,10.8,2,21.5,4,31.9c1.9,10.4,4.6,20.7,8.9,29.6l0.8,1.6c0.3,0.5,0.5,1.1,0.9,1.6l1.9,3.3l1,1.7     c0.3,0.6,0.7,1.1,1.1,1.6l2.1,3.3c0.7,1.1,1.5,2.2,2.3,3.2l2.3,3.2c1.6,2.1,3.3,4.1,4.9,6.2c6.8,8.1,14.1,15.9,21.9,23.1     c7.9,7.2,16.1,14,24.8,19.9c1.1,0.7,2.2,1.5,3.3,2.2l3.3,2.1c2.2,1.5,4.5,2.7,6.8,4c2.3,1.3,4.6,2.4,6.9,3.5     c1.2,0.6,2.3,1,3.5,1.5l3.6,1.5l-3.6,11.4c-11.4-3.3-21.7-8.6-31.4-14.7c-9.6-6.1-18.7-13-27.1-20.6     c-8.4-7.6-16.4-15.6-23.7-24.5c-1.8-2.3-3.6-4.4-5.3-6.7l-2.5-3.5c-0.8-1.2-1.7-2.3-2.5-3.5l-2.4-3.6c-0.4-0.6-0.8-1.2-1.2-1.8     l-1.1-1.9l-2.2-3.8c-0.4-0.6-0.7-1.3-1-2l-1-2.1c-2.5-5.5-4.4-11.1-5.9-16.7c-1.5-5.6-2.6-11.2-3.5-16.8     c-1-5.6-1.6-11.2-2.1-16.8c-0.5-5.6-0.9-11.2-1.1-16.8c-0.2-5.6-0.3-11.2-0.3-16.7c0-5.6,0.1-11.1,0.6-16.7     c0.5-5.5,1.2-11.1,2.3-16.6C1444.6,1032,1446,1026.5,1448.3,1021.2z"/>
		</g>
		<g>
			<path class="st17" d="M1470.7,1256.1c0,0,108.4-27.6,151.2-24.5c42.9,3.1,42.4,29.6,42.4,29.6"/>
			<path class="st4" d="M1470.7,1256.1c1.8-2,3.7-3.4,5.6-4.6c2-1.2,4-2.1,6.1-2.8c4.2-1.3,8.5-2.4,12.7-3.6     c8.5-2.4,17-4.5,25.6-6.6c17.1-4.1,34.4-7.6,51.9-10.3c8.8-1.4,17.6-2.5,26.5-3.3c4.5-0.4,9-0.6,13.6-0.8c4.6-0.1,9.4,0,14,0.6     c4.7,0.5,9.4,1.4,14.1,2.8c4.7,1.4,9.4,3.5,13.7,6.3c4.3,2.9,8.3,6.7,11.2,11.4c1.4,2.3,2.6,4.8,3.4,7.5c0.4,1.3,0.7,2.7,0.9,4     c0.1,0.7,0.2,1.4,0.2,2.1c0,0.4,0,0.7,0.1,1.1l0,0.6l0,0.8l-12-0.2c0,0.1,0,0.1,0,0l0-0.1l0-0.2l-0.1-0.5     c-0.1-0.4-0.2-0.7-0.3-1.1c-0.2-0.8-0.5-1.5-0.8-2.3c-0.7-1.5-1.5-3-2.5-4.3c-1.9-2.7-4.6-4.9-7.6-6.8c-1.5-0.9-3.2-1.7-4.9-2.4     c-0.8-0.4-1.7-0.7-2.6-1c-0.9-0.3-1.8-0.6-2.7-0.9c-3.7-1-7.6-1.8-11.6-2.2c-4-0.4-8-0.6-12.2-0.6c-4.2,0.1-8.4,0.2-12.6,0.5     c-8.5,0.6-17.1,1.6-25.6,2.8c-8.6,1.1-17.1,2.6-25.7,3.9c-8.6,1.4-17.2,2.9-25.7,4.4c-8.6,1.5-17.2,3.1-25.8,4.6     c-4.3,0.8-8.6,1.6-12.9,2.4c-2.2,0.3-4.4,0.4-6.7,0.3C1475.5,1257.4,1473.2,1257,1470.7,1256.1z"/>
		</g>
		<g>
			<path class="st4" d="M1648.5,953.8c4.5-3.6,8.8-6.5,13.2-9.3c4.3-2.8,8.6-5.5,13-8.1c4.3-2.6,8.6-5.3,12.9-8     c1.1-0.7,2.2-1.4,3.3-2c1.1-0.7,2.2-1.4,3.3-2.1c0.6-0.3,1.1-0.7,1.7-1c0.6-0.4,1.1-0.7,1.7-1.1c1.1-0.7,2.4-1.4,3.7-2.1     c-0.4,1.4-0.9,2.7-1.4,4c-0.3,0.7-0.6,1.3-0.9,2c-0.3,0.6-0.7,1.2-1,1.8c-0.7,1.2-1.5,2.4-2.3,3.6c-0.8,1.1-1.7,2.2-2.6,3.3     c-0.5,0.5-0.9,1.1-1.4,1.6c-0.5,0.5-1,1-1.5,1.5c-1,1-2,2-3.1,2.9c-1.1,0.9-2.2,1.7-3.3,2.6c-1.1,0.8-2.3,1.6-3.5,2.3     c-4.7,3-9.8,5.3-15.2,6.8c-1.3,0.4-2.7,0.7-4.1,1c-1.4,0.2-2.7,0.5-4.1,0.6l-2.1,0.2c-0.7,0-1.4,0.1-2.1,0.1     C1651.3,954.1,1649.9,954,1648.5,953.8z"/>
		</g>
		<path class="st14" d="M1683.6,936.9c0,0,11.6,12.3,40.1,22.2"/>
		<g>
			<line class="st17" x1="1448.3" y1="1055.9" x2="1465.7" y2="1044.1"/>
			<polygon class="st4" points="1444.9,1050.9 1465.7,1044.1 1451.7,1060.9    "/>
		</g>
		<path class="st18" d="M1505,529.6c-35.6-53.9-76-70.8-114.6-49c-29.8,16.8-44.4,53.8-17.2,112.8    C1373.2,593.4,1408.5,530.5,1505,529.6z"/>
		<path class="st19" d="M1383.7,614.1c31,3.6,72.9,9,93-2.1c19-10.5,36.5-34,46.7-52.3l-2-2.2c-5.3-10.2-10.8-19.5-16.3-27.9    c-96.5,0.9-131.8,63.8-131.8,63.8c2.8,6,6,12.3,9.7,18.8L1383.7,614.1z"/>
		<path class="st18" d="M1568.6,532.5c-13-5.4-31.4-4.6-38.3,13c-0.1,0.2-0.2,0.4-0.2,0.6c-1.6,3.9-3.8,8.6-6.7,13.6    c-10.2,18.2-27.8,41.7-46.7,52.3c-20,11.1-62,5.7-93,2.1c-2.7-0.3-5.3-0.6-7.9-0.9c-4-0.4-7.7-0.8-11-1.1    c-29.9-2.3-31.1,22.2-31.1,22.2s-1.6,20.7,25.1,28.3c35.8,10.3,74.4,14.6,139.7-5.4c65.3-20,77.7-82,80.8-88.1    C1582.3,563.1,1581.6,537.9,1568.6,532.5z"/>
		<path class="st4" d="M1392.8,730.1c0,0-34.4-25.4-110.5,128.2s28.1,169,68.5,148.5c40.3-20.4,65.9-88.3,60.8-154    C1406.4,787.3,1398.3,740.2,1392.8,730.1z"/>
		<ellipse class="st4" cx="1887.4" cy="847.6" rx="82.7" ry="59.2"/>
		<path class="st16" d="M1665.8,847.6c31.6-13.8,73.1-30.3,97.1-34.9c6.1-13.4,9.5-29,9.5-45.6c0-50.4-31.9-91.2-71.2-91.2    s-71.2,40.8-71.2,91.2C1630.1,797.7,1647.9,831.1,1665.8,847.6z"/>
		<g>
			<path class="st4" d="M1769.2,794.2c2.1-7.6,3.2-15.9,3.2-24.5c0-37.9-21.7-68.7-48.5-68.7s-48.5,43.4-48.5,68.7     c0,24.5,10.1,47.6,23.8,59.7c6.5-2.2,11.3-4.4,16-6c0,0,23.1-7.5,48.1-15.1L1769.2,794.2z"/>
			<path class="st4" d="M1565.9,811c-0.8-29.9-16.9-54.1-38.8-56.1c-24.4-2.3-46.8,23.9-50,58.4c-3.2,34.5,14,64.4,38.4,66.6     c6.3,0.6,12.5-0.7,18.2-3.6C1533.7,876.4,1566.4,863,1565.9,811z"/>
			<g>
				<path class="st20" d="M1541.2,797.4c-18.1,0-32.9,17.9-32.9,40c0,18.9,10.8,34.8,25.3,38.9c16.5-8.2,29.5-29.2,31.8-54.9      c0.3-3.6,0.4-7.1,0.3-10.5C1559.9,802.7,1551.1,797.4,1541.2,797.4z"/>
			</g>
			<g>
				<path class="st20" d="M1769.2,794.2c-1.3-20.6-15.5-36.8-32.7-36.8c-18.1,0-32.9,17.9-32.9,40c0,12.4,4.3,18.6,11.6,26      c17.8-6.1,35.1-11.6,48.1-15.1C1766.5,802.7,1767.4,801.1,1769.2,794.2z"/>
			</g>
		</g>
		<path class="st21" d="M1732.8,1200.1c0,0-19,28.7-51.6,53.9"/>
	</g>
</g>
<g id="Bulb">
	<path class="st22" d="M1842.8,752.4c0,0,52.3-112,39.2-276.7c0,0-478.9,19.2-454.2-228.2c20.5-206.1,343.9-199.2,545.7-195.8   c201.7,3.5,498.7-43.1,494.9,194.9s-323.1,243-502.3,244.2C1966,490.9,1966,689.6,1842.8,752.4z"/>
	<g>
		<path d="M1619.6,252c-1.4,0.6-3,0.9-4.8,0.9c-0.5,0-1.3-0.1-2.2-0.2c-1-0.1-2-0.2-3.2-0.4c-1.1-0.2-2.2-0.3-3.3-0.5    c-1.1-0.2-1.9-0.2-2.4-0.2c-3.3,0-6.5,0.5-9.6,1.4c0.6,3.9,1.1,7.7,1.5,11.5c0.4,3.7,0.8,7.2,1.1,10.5s0.5,6.2,0.6,8.8    c0.1,2.6,0.2,4.9,0.2,6.7c0,4.6,0,8.6-0.1,12c-0.1,3.4-0.3,6.1-0.9,8.4c-0.5,2.2-1.3,3.8-2.5,4.9c-1.1,1-2.8,1.5-5,1.5    c-2.1,0-3.6-0.5-4.6-1.6c-1-1.1-1.7-2.4-2-3.9c-0.4-1.5-0.5-3.1-0.5-4.7c0.1-1.6,0.1-3,0.1-4.2c0-2,0.2-3.7,0.5-5.3    c0.3-1.6,0.5-3.1,0.5-4.6c0-0.7-0.2-3.3-0.6-7.8c-0.4-4.5-0.6-10.1-0.6-17c0-2.3-0.2-4.5-0.7-6.7c-0.5-2.2-1-4.4-1.5-6.4l-9.1,0.6    c-3.7,0.3-6.3,0.9-7.7,1.7c-2.2,0-4-0.6-5.6-1.9c-1.5-1.2-2.3-2.8-2.3-4.8c0-2,0.9-4.1,2.6-6.5c0.5-0.1,2.8-0.5,7-1.2    c4.1-0.7,10.1-1.7,17.8-3.2l7.7-0.9c2.5-0.3,4.9-0.5,7.1-0.5h2.3l18.3,1.2c2.2,1.2,3.3,3.6,3.3,7    C1621,248.6,1620.5,250.3,1619.6,252z"/>
		<path d="M1688.8,309.7c-0.5,1.4-1.5,2.9-3.1,4.3c-1.5,1.4-3,2.2-4.5,2.2c-3,0-5-2.1-5.9-6.3c-0.9-4.2-1.4-10.2-1.4-18v-1.4    c0-3.9-0.3-6.8-0.9-8.6c-0.6-1.8-1-3-1.2-3.5c-1.1-2.5-2.9-3.7-5.3-3.7c-1.4,0-2.9,0.3-4.5,0.9c-1.5,0.6-2.9,1.2-4.2,2    c-1.2,0.8-2.3,1.5-3.2,2.2c-0.9,0.7-1.4,1.2-1.6,1.5c-0.2,0.7-0.4,2-0.5,3.7c-0.2,1.8-0.3,3.8-0.4,6c-0.1,2.3-0.2,4.6-0.3,7    c-0.1,2.4-0.2,4.5-0.2,6.5c-0.1,2-0.1,3.5-0.1,4.6c0,1.1,0.1,1.6,0.2,1.4c-0.3,2.8-2.5,4.2-6.7,4.2c-3.1,0-5.1-1-6-2.9    c-0.9-2-1.3-5.3-1.3-10.1c0-1.2,0-2,0.1-2.2c0.1-0.2,0.1-0.7,0.2-1.5c0.1-0.8,0.3-2.2,0.5-4.3c0.2-2.1,0.5-5.6,0.8-10.5    c0.1-2.1,0.2-3.9,0.3-5.7c0.1-1.7,0.1-3.2,0-4.4c0-1.1,0-2.1,0-2.9c0-0.8-0.1-1.4-0.2-1.9c0.1-0.3,0.2-1.3,0.4-2.9    c0.2-1.6,0.3-3.5,0.5-5.4c0.2-2,0.3-3.8,0.5-5.6c0.2-1.8,0.4-2.9,0.6-3.6c0-2.2,0.1-4.7,0.2-7.5c0.1-2.8,0.5-5.5,1.1-8    s1.6-4.6,2.9-6.3c1.3-1.7,3.1-2.6,5.5-2.6c4,0,6,2.6,6,7.7c0,2.9-0.6,7-1.7,12.4c-0.2,2.8-0.4,5-0.7,6.5c-0.3,1.5-0.5,2.9-0.7,4    c-0.2,1.1-0.4,2.2-0.5,3.3c-0.1,1-0.2,2.5-0.2,4.3c2.6-2.2,5.1-3.4,7.4-3.8c2.4-0.4,4.6-0.5,6.7-0.5c5.2,0,9.3,1.5,12.4,4.5    c3.1,3,5.4,7.9,7,14.9c0.1,2.5,0.2,4.4,0.2,5.8c0.1,1.4,0.2,2.9,0.3,4.6c0.2,1.7,0.3,4,0.5,6.9    C1688.2,300.2,1688.5,304.4,1688.8,309.7z"/>
		<path d="M1731.7,269.3v2c0,0.5,0,1.1,0,1.7c0,0.6-0.1,1.2-0.3,1.7l-1.2,7v1.4c0,0.6-0.1,1.4-0.2,2.5c-0.1,1-0.2,2.1-0.4,3.1    c-0.2,1-0.3,2-0.4,2.9c-0.1,0.9-0.2,1.7-0.2,2.3c0,0.5,0,0.9,0.1,1.2c0.1,0.3,0.1,0.7,0.1,1.2c0,0.9-0.1,1.9-0.3,3    c-0.2,1.1-0.3,2.3-0.3,3.6c0,1.2,0.2,2.5,0.5,3.9c-1.1,4.6-3.5,7-7.1,7c-5.1,0-7.6-4.7-7.6-14.2c0-3.2,0.2-6.4,0.5-9.5    c0.3-3.1,0.7-6.1,1.1-8.7c0.4-2.7,0.9-5,1.3-7c0.5-2,0.9-3.6,1.2-4.7c1.5-2.3,3.7-3.4,6.5-3.4    C1727.5,266.2,1729.8,267.3,1731.7,269.3z M1736.6,243.5c0.2,0.8,0.3,1.6,0.3,2.3c0,3.3-1,6.1-2.9,8.4c-3.1,1.2-6.2,1.9-9.3,1.9    c-2-1.2-3.6-2.7-4.9-4.3c-1.3-1.6-1.9-3.2-1.9-4.7c0-1.3,1.5-4.6,4.6-9.9c1.3,0.2,2.8,0.4,4.3,0.5c1.5,0.1,2.9,0.4,4.2,0.8    c1.3,0.4,2.4,1,3.4,1.8C1735.3,240.9,1736.1,242,1736.6,243.5z"/>
		<path d="M1800.7,298.6c-0.3,3.2-1.4,6.1-3.2,8.7c-1.8,2.6-3.6,5.3-5.5,8c-1.1,0.9-2.8,1.7-4.9,2.4c-2.1,0.7-4.2,1.2-6.3,1.6    c-2.1,0.4-3.8,0.7-5.3,0.9c-1.5,0.2-2.1,0.3-1.9,0.3c-1,0-2.3-0.2-3.9-0.5c-1.6-0.4-3.2-0.7-4.6-1.1c-1.5-0.4-2.7-0.7-3.7-1.1    c-1-0.4-1.4-0.5-1.3-0.5c-0.9-0.1-2.1-0.4-3.6-1c-1.4-0.6-2.8-1.2-4.1-2c-1.3-0.8-2.4-1.6-3.4-2.5c-1-0.9-1.5-1.7-1.5-2.6    c0-0.8,0.2-1.7,0.6-2.6c0.4-0.9,1-1.7,1.7-2.5c0.7-0.8,1.5-1.4,2.2-1.9s1.6-0.7,2.4-0.7l10.7,4c2,0.6,3.9,1.1,5.8,1.3    c1.9,0.3,3.8,0.4,5.7,0.4c1.8,0,3.3-0.3,4.7-1c1.4-0.7,2.5-1.5,3.2-2.4l2.3-4.6c-0.2-1.9-1-3.3-2.2-4.3c-1.3-1-2.9-1.9-4.8-2.6    c-1.9-0.7-3.9-1.4-6.1-2c-2.2-0.6-4.2-1.4-6-2.5l-6.7-4.2c-2.2-2.8-3.3-7.1-3.4-12.9c0.6-3.6,2.2-6.5,4.6-8.7    c0.1-0.1,0.8-0.6,2-1.5c1.2-0.9,3.1-2.1,5.7-3.8c0.4,0,1.7-0.1,3.9-0.3c2.2-0.2,5.3-0.5,9.2-0.9c1.8,0,6,1.2,12.9,3.7    c1.3,1.3,2,3.2,2,5.6c0,1.9-0.4,3.4-1.3,4.7c-0.9,1.3-2.1,1.9-3.8,1.9c-1.8,0-3.7-0.4-5.8-1.3c-2.1-0.9-4.1-1.3-6-1.3    c-2.6,0-4.9,0.2-7,0.7c-2.1,0.5-3.2,1.5-3.2,3.2c0,2.4,1,3.8,3.1,4.3C1789.7,280.7,1798.6,287.9,1800.7,298.6z"/>
		<path d="M1905.5,269.3v2c0,0.5,0,1.1,0,1.7c0,0.6-0.1,1.2-0.3,1.7l-1.2,7v1.4c0,0.6-0.1,1.4-0.2,2.5c-0.1,1-0.2,2.1-0.4,3.1    c-0.2,1-0.3,2-0.4,2.9c-0.1,0.9-0.2,1.7-0.2,2.3c0,0.5,0,0.9,0.1,1.2c0.1,0.3,0.1,0.7,0.1,1.2c0,0.9-0.1,1.9-0.3,3    c-0.2,1.1-0.3,2.3-0.3,3.6c0,1.2,0.2,2.5,0.5,3.9c-1.1,4.6-3.5,7-7.1,7c-5.1,0-7.6-4.7-7.6-14.2c0-3.2,0.2-6.4,0.5-9.5    c0.3-3.1,0.7-6.1,1.1-8.7c0.4-2.7,0.9-5,1.3-7c0.5-2,0.9-3.6,1.2-4.7c1.5-2.3,3.7-3.4,6.5-3.4    C1901.4,266.2,1903.7,267.3,1905.5,269.3z M1910.5,243.5c0.2,0.8,0.3,1.6,0.3,2.3c0,3.3-1,6.1-2.9,8.4c-3.1,1.2-6.2,1.9-9.3,1.9    c-2-1.2-3.6-2.7-4.9-4.3c-1.3-1.6-1.9-3.2-1.9-4.7c0-1.3,1.5-4.6,4.6-9.9c1.3,0.2,2.8,0.4,4.3,0.5c1.5,0.1,2.9,0.4,4.2,0.8    c1.3,0.4,2.4,1,3.4,1.8C1909.2,240.9,1910,242,1910.5,243.5z"/>
		<path d="M1974.6,298.6c-0.3,3.2-1.4,6.1-3.2,8.7c-1.8,2.6-3.6,5.3-5.5,8c-1.1,0.9-2.8,1.7-4.9,2.4c-2.1,0.7-4.2,1.2-6.3,1.6    c-2.1,0.4-3.8,0.7-5.3,0.9c-1.5,0.2-2.1,0.3-1.9,0.3c-1,0-2.3-0.2-3.9-0.5c-1.6-0.4-3.2-0.7-4.6-1.1c-1.5-0.4-2.7-0.7-3.7-1.1    c-1-0.4-1.4-0.5-1.3-0.5c-0.9-0.1-2.1-0.4-3.6-1c-1.4-0.6-2.8-1.2-4.1-2c-1.3-0.8-2.4-1.6-3.4-2.5c-1-0.9-1.5-1.7-1.5-2.6    c0-0.8,0.2-1.7,0.6-2.6c0.4-0.9,1-1.7,1.7-2.5c0.7-0.8,1.5-1.4,2.2-1.9s1.6-0.7,2.4-0.7l10.7,4c2,0.6,3.9,1.1,5.8,1.3    c1.9,0.3,3.8,0.4,5.7,0.4c1.8,0,3.3-0.3,4.7-1c1.4-0.7,2.5-1.5,3.2-2.4l2.3-4.6c-0.2-1.9-1-3.3-2.2-4.3c-1.3-1-2.9-1.9-4.8-2.6    c-1.9-0.7-3.9-1.4-6.1-2c-2.2-0.6-4.2-1.4-6-2.5l-6.7-4.2c-2.2-2.8-3.3-7.1-3.4-12.9c0.6-3.6,2.2-6.5,4.6-8.7    c0.1-0.1,0.8-0.6,2-1.5c1.2-0.9,3.1-2.1,5.7-3.8c0.4,0,1.7-0.1,3.9-0.3c2.2-0.2,5.3-0.5,9.2-0.9c1.8,0,6,1.2,12.9,3.7    c1.3,1.3,2,3.2,2,5.6c0,1.9-0.4,3.4-1.3,4.7c-0.9,1.3-2.1,1.9-3.8,1.9c-1.8,0-3.7-0.4-5.8-1.3c-2.1-0.9-4.1-1.3-6-1.3    c-2.6,0-4.9,0.2-7,0.7c-2.1,0.5-3.2,1.5-3.2,3.2c0,2.4,1,3.8,3.1,4.3C1963.6,280.7,1972.5,287.9,1974.6,298.6z"/>
		<path d="M2120.9,242.8c0.3,0.8,0.5,1.8,0.5,2.8c0,1.9-0.5,3.7-1.5,5.7c-1,1.9-2.3,2.9-3.9,2.9c-0.3,0-1-0.2-2.2-0.5    c-1.1-0.3-2.4-0.7-3.8-1.1c-1.4-0.4-2.8-0.8-4.2-1.1s-2.5-0.5-3.3-0.5h-1.2c-3.3-0.8-6.5-1.4-9.5-1.7c-3-0.3-6-0.5-8.7-0.5    c-0.8,0-1.4,0.3-1.9,1c-0.4,0.7-0.7,1.5-0.9,2.4c-0.2,0.9-0.3,1.9-0.3,2.9c0,1,0,1.9,0,2.5v1.2c0,0.6,0,1.5-0.1,2.8    c-0.1,1.2-0.1,2.5-0.2,3.7c-0.1,1.2-0.2,2.3-0.2,3.3c-0.1,1-0.1,1.6-0.1,1.9l11.5-0.3c0.1,0,0.7-0.1,1.9-0.2    c1.2-0.1,2.6-0.2,4.3-0.4c1.7-0.2,3.3-0.3,5-0.4c1.7-0.1,3.1-0.2,4.1-0.2c2.2,0,3.8,0.7,4.8,2.1c1,1.4,1.5,3,1.5,4.9    c0,1.9-0.3,3.3-1,4.2c-0.7,0.9-1.8,1.6-3.3,2c-1.5,0.4-3.6,0.7-6.3,0.9c-2.6,0.2-5.9,0.5-9.8,0.9h-2.9c-1.2,0-2.6,0-4.2,0    c-1.5,0-3.3,0.1-5.3,0.2l0.3,15.3c-0.1,0.8-0.2,1.6-0.2,2.3c0,0.7,0,1.5,0,2.3c0,4.2,0.5,7.5,1.5,9.9c-0.3,4.9-2.5,7.3-6.7,7.3    c-2.2,0-3.8-0.8-5-2.2c-1.2-1.5-2.1-3.1-2.6-4.8c-0.6-1.7-0.9-3.2-1-4.6c-0.1-1.3-0.2-1.8-0.2-1.4c-0.4-2.2-0.7-4.3-0.9-6.5    c-0.2-2.2-0.3-4.3-0.3-6.5c0-1.5,0-3.2,0.1-5c0.1-1.8,0.1-3.7,0.1-5.7c0-2.5,0-5.1,0-7.9s-0.1-5.8-0.3-9    c0.3-15.1,2.1-25.6,5.3-31.7c0.6-0.8,3-1.2,7.1-1.2c7.9,0,11.9,0.1,11.9,0.2h0.5c1.4,0,5.5,0.7,12.1,2.2    C2110.4,237.5,2117,239.3,2120.9,242.8z"/>
		<path d="M2156.7,269.3v2c0,0.5,0,1.1,0,1.7c0,0.6-0.1,1.2-0.3,1.7l-1.2,7v1.4c0,0.6-0.1,1.4-0.2,2.5c-0.1,1-0.2,2.1-0.4,3.1    c-0.2,1-0.3,2-0.4,2.9c-0.1,0.9-0.2,1.7-0.2,2.3c0,0.5,0,0.9,0.1,1.2c0.1,0.3,0.1,0.7,0.1,1.2c0,0.9-0.1,1.9-0.3,3    c-0.2,1.1-0.3,2.3-0.3,3.6c0,1.2,0.2,2.5,0.5,3.9c-1.1,4.6-3.5,7-7.1,7c-5.1,0-7.6-4.7-7.6-14.2c0-3.2,0.2-6.4,0.5-9.5    c0.3-3.1,0.7-6.1,1.1-8.7c0.4-2.7,0.9-5,1.3-7c0.5-2,0.9-3.6,1.2-4.7c1.5-2.3,3.7-3.4,6.5-3.4    C2152.6,266.2,2154.8,267.3,2156.7,269.3z M2161.6,243.5c0.2,0.8,0.3,1.6,0.3,2.3c0,3.3-1,6.1-2.9,8.4c-3.1,1.2-6.2,1.9-9.3,1.9    c-2-1.2-3.6-2.7-4.9-4.3c-1.3-1.6-1.9-3.2-1.9-4.7c0-1.3,1.5-4.6,4.6-9.9c1.3,0.2,2.8,0.4,4.3,0.5c1.5,0.1,2.9,0.4,4.2,0.8    c1.3,0.4,2.4,1,3.4,1.8C2160.4,240.9,2161.1,242,2161.6,243.5z"/>
		<path d="M2235,299.2v1.2c0,0.6,0,1.7,0.1,3.3c0.1,1.6-0.1,3.2-0.5,4.9c-0.4,1.7-1.1,3.1-2.1,4.4c-1,1.3-2.6,1.9-4.6,1.9    c-4,0-6.4-1.6-7.1-4.8c0.1-0.6,0.2-1.3,0.2-2.1c0-0.8,0-1.6,0-2.6c0-0.4,0-1.9,0-4.6s-0.1-5.5-0.2-8.6c-0.2-3.1-0.5-6-1-8.7    c-0.5-2.7-1.3-4.5-2.3-5.2c-2.4-1.6-4.5-2.5-6.3-2.5c-2.5,0-4.6,0.8-6.3,2.2c-1.7,1.5-3.1,4.4-4.3,8.7c-0.1,1.4-0.2,3.1-0.3,4.9    c-0.1,1.8-0.3,3.8-0.5,6.1c0,1.8,0.1,3.7,0.2,5.8c0.1,2.1,0.3,4.5,0.5,7.2c0,2-0.8,3.6-2.3,4.9c-1.5,1.3-3.3,1.9-5.3,1.9    c-1.5,0-2.8-0.4-3.7-1.2c-0.9-0.8-1.6-1.9-2.1-3.3c-0.5-1.3-0.8-2.8-0.9-4.3c-0.2-1.5-0.2-3.1-0.2-4.6c0-1.1,0.1-2.3,0.2-3.5    c0.1-1.2,0.3-2.4,0.5-3.6l1.2-14.9l1.2-7.4c-0.2-1.2-0.6-2.6-1.2-4c-0.6-1.4-0.9-2.6-0.9-3.4c0-1.8,0.7-3.4,2.1-4.8    c1.4-1.4,3.1-2.2,5.2-2.2c1.4,0,2.5,0.3,3.3,0.9c0.7,0.6,1.9,1.9,3.6,4.1c2.1-0.9,3.7-1.5,5-1.8c1.2-0.3,2.7-0.4,4.3-0.4    c5.4,0,10.1,1.3,14.2,3.8c4.1,2.5,6.6,6.7,7.7,12.6c0.3,2.2,0.6,4,0.9,5.4c0.3,1.4,0.5,2.8,0.7,4.2c0.2,1.3,0.4,2.8,0.6,4.3    C2234.3,295.1,2234.6,296.9,2235,299.2z"/>
		<path d="M2311.7,310.2c-3.3,3.3-7,6.1-11.1,8.4c-4.1,2.3-8.3,3.5-12.5,3.5c-3.8,0-8.7-0.6-14.7-1.9c-2.1-1.3-4.1-3-6.2-4.9    c-2.1-1.9-3.9-4-5.6-6.3c-1.7-2.3-3-4.9-4-7.6c-1-2.7-1.5-5.5-1.5-8.4c0-0.8,0.1-1.9,0.2-3.3c0.1-1.4,0.2-2.8,0.4-4.2    c0.2-1.4,0.3-3.1,0.5-5.2c2.1-3.3,4.3-6.6,6.6-9.8c2.3-3.3,5.6-6.1,9.8-8.6c6.7-1.4,11.6-2.2,14.6-2.2c1.5,0,2.9,0.1,4,0.2    c1.1,0.2,2.2,0.5,3.3,0.9c1.1,0.5,2.2,1.2,3.3,2.1c1.1,0.9,2.3,2.1,3.8,3.6c1.7,1.8,3,2.9,3.9,3.6c1,0.6,1.5,1.2,1.5,1.7    c0,9.5-2.9,15.9-8.8,19.4c-2.6,0.9-5.9,1.9-10.1,3c-4.1,1.1-9.8,2.1-16.9,3c1.4,3.9,3.4,6.9,5.7,8.8c2.4,2,5.1,2.9,8.1,2.9    c4.4,0,10-2.6,16.7-7.9c1-0.9,2.3-1.4,3.9-1.4c1.6,0,3.1,0.6,4.4,1.9c1.3,1.2,1.9,2.8,1.9,4.6    C2312.8,307.5,2312.4,308.9,2311.7,310.2z M2294.2,277.1c-2-3.2-4.3-4.8-7-4.8c-1.1,0-2.4,0.2-3.7,0.5c-1.3,0.3-2.7,0.8-4.1,1.3    c-1.4,0.6-2.7,1.3-3.9,2.1c-1.2,0.8-2.1,1.8-2.9,2.9l-1.5,4.6c3.5-0.3,6.6-0.6,9.3-0.8c2.7-0.2,5-0.5,7-0.9c2-0.4,3.5-1,4.6-1.7    C2293.1,279.6,2293.9,278.5,2294.2,277.1z"/>
		<path d="M2358.3,311.7c0,0.9-0.3,1.9-0.9,2.8c-0.6,0.9-1.3,1.7-2.2,2.4c-0.9,0.7-1.9,1.2-2.9,1.7s-2.1,0.7-3,0.7    c-2.5,0-4.5-0.3-6-1c-1.5-0.7-2.7-1.5-3.5-2.6c-0.8-1-1.3-2.1-1.5-3.3c-0.3-1.2-0.4-2.3-0.4-3.3c0-1.2,0.2-2.5,0.7-3.8    c0.5-1.3,1.1-2.5,1.9-3.5c0.8-1,1.8-1.9,2.9-2.6c1.1-0.7,2.4-1,3.9-1c0.9,0,2,0.1,3.3,0.3c1.3,0.2,2.5,0.8,3.6,1.7    c1.1,0.9,2.1,2.3,2.9,4.1C2357.9,306.2,2358.3,308.7,2358.3,311.7z"/>
	</g>
</g>
</svg>